Coordinates
version=1
nRows=14
nColumns=24
inDegrees=yes

Units are S.I. units (second, meters, Newtons, ...)
Angles are in degrees.

endheader
time	pelvis_tilt	pelvis_list	pelvis_rotation	pelvis_tx	pelvis_ty	pelvis_tz	hip_flexion_r	hip_adduction_r	hip_rotation_r	knee_angle_r	ankle_angle_r	subtalar_angle_r	mtp_angle_r	hip_flexion_l	hip_adduction_l	hip_rotation_l	knee_angle_l	ankle_angle_l	subtalar_angle_l	mtp_angle_l	lumbar_extension	lumbar_bending	lumbar_rotation
      1.09150000	     -2.25039570	      2.56713355	     -2.83641032	      0.36032974	      1.07551160	      0.32046940	     14.06717098	     -6.41730287	     -6.56960797	    -67.94056015	      0.32692039	     -7.03813132	      2.79942896	     11.82683581	      4.94741311	      1.80655089	    -18.18671207	     10.26722424	      0.55758627	     -3.12412693	    -12.54740215	     -4.23019358	     -1.08637405
      1.09566667	     -2.21541767	      2.40058361	     -2.77968493	      0.36562515	      1.07661988	      0.32021958	     14.55547930	     -6.23860602	     -6.70590401	    -67.70438378	      0.71580906	     -6.90832318	      2.75042135	     11.26143853	      4.79414085	      1.87726041	    -17.76319926	     10.30790110	      0.63087659	     -3.12712068	    -12.59419619	     -3.98879807	     -1.24433483
      1.09983333	     -2.21285866	      2.25036825	     -2.71796289	      0.37093145	      1.07761880	      0.31996479	     15.07314414	     -6.07763302	     -6.84463807	    -67.42960604	      1.12273782	     -6.71301248	      2.71426112	     10.73255561	      4.65735920	      1.95532828	    -17.33966031	     10.34279961	      0.69243955	     -3.13002691	    -12.60037162	     -3.76360219	     -1.40577428
      1.10400000	     -2.18215387	      2.08052589	     -2.65009188	      0.37619469	      1.07864171	      0.31970743	     15.54714117	     -5.89035343	     -6.98918291	    -67.09492689	      1.53013856	     -6.50649708	      2.70085734	     10.17909060	      4.49805549	      2.02718680	    -16.92214909	     10.36055339	      0.76837650	     -3.13198370	    -12.65835893	     -3.50457960	     -1.52320322
      1.10816667	     -2.16039265	      1.92529370	     -2.56997122	      0.38147995	      1.07960130	      0.31943499	     16.01767528	     -5.72495748	     -7.14863706	    -66.71368035	      1.94762743	     -6.20989624	      2.69013010	      9.63064112	      4.35659300	      2.12509930	    -16.49456199	     10.40165895	      0.83035137	     -3.13371041	    -12.69458148	     -3.27052908	     -1.70256155
      1.11233333	     -2.13564413	      1.78837433	     -2.48722086	      0.38676885	      1.08051201	      0.31916585	     16.47755662	     -5.58255592	     -7.31427232	    -66.29203853	      2.37024362	     -5.88513518	      2.68153309	      9.07740127	      4.23468965	      2.22337933	    -16.05784356	     10.43260512	      0.86628988	     -3.13637189	    -12.71149899	     -3.05896260	     -1.91073915
      1.11650000	     -2.12303389	      1.62641644	     -2.40010550	      0.39201455	      1.08135870	      0.31890420	     16.94049814	     -5.40194253	     -7.47588724	    -65.81871673	      2.78027245	     -5.56724695	      2.68451672	      8.54971032	      4.08137306	      2.32199013	    -15.64401330	     10.45545111	      0.92910285	     -3.13822074	    -12.75185337	     -2.81266834	     -2.05370127
      1.12066667	     -2.07671040	      1.48478287	     -2.30410236	      0.39727914	      1.08221723	      0.31862056	     17.35297973	     -5.25653744	     -7.65932118	    -65.30004027	      3.20488883	     -5.19303412	      2.69257510	      7.97953971	      3.95272558	      2.42467533	    -15.21310905	     10.49066899	      0.96990178	     -3.14013110	    -12.79887288	     -2.58249417	     -2.25581913
      1.12483333	     -2.05866216	      1.32549282	     -2.20951780	      0.40252864	      1.08299067	      0.31836698	     17.78438462	     -5.07665246	     -7.82988721	    -64.72821504	      3.60837737	     -4.85995296	      2.70657731	      7.45334388	      3.79757553	      2.50625556	    -14.80935753	     10.49464690	      1.02763883	     -3.14193769	    -12.83279556	     -2.33267729	     -2.37692280
      1.12900000	     -2.03632550	      1.20430881	     -2.10875481	      0.40776814	      1.08368007	      0.31809852	     18.21145133	     -4.95133061	     -8.01130458	    -64.13963090	      4.02931922	     -4.42484770	      2.72899520	      6.91434955	      3.68844947	      2.63303703	    -14.38172318	     10.54854562	      1.05420649	     -3.14313139	    -12.86486365	     -2.13342177	     -2.60313308
      1.13316667	     -2.04363470	      1.06983045	     -2.00736762	      0.41300521	      1.08428492	      0.31785287	     18.65732710	     -4.79993137	     -8.18600083	    -63.49862532	      4.42804577	     -4.03569802	      2.75459464	      6.41949986	      3.55849216	      2.74215755	    -13.97817711	     10.57328488	      1.08210731	     -3.14456168	    -12.86724781	     -1.92163142	     -2.77881087
      1.13733333	     -2.00939051	      0.94192004	     -1.90777290	      0.41822675	      1.08490281	      0.31761377	     19.04752706	     -4.65794226	     -8.36175335	    -62.81539414	      4.82095047	     -3.64244577	      2.78396373	      5.88088978	      3.43483845	      2.84125872	    -13.57437343	     10.60150973	      1.11579027	     -3.14572322	    -12.91859666	     -1.71350403	     -2.94672150
      1.14150000	     -2.02242147	      0.83277717	     -1.80992009	      0.42345079	      1.08537038	      0.31738782	     19.48631907	     -4.53364637	     -8.53007896	    -62.10619448	      5.20957047	     -3.24419713	      2.81739664	      5.39777387	      3.32888695	      2.94311037	    -13.17641078	     10.63438283	      1.13732595	     -3.14668632	    -12.90954805	     -1.52485741	     -3.11823661
      1.14566667	     -2.00554887	      0.72482548	     -1.71092797	      0.42865117	      1.08582410	      0.31716496	     19.88218580	     -4.41229214	     -8.70298172	    -61.35719763	      5.59005822	     -2.84593712	      2.85526988	      4.88573323	      3.22300139	      3.04067137	    -12.78165063	     10.67474273	      1.16223671	     -3.14701428	    -12.94073785	     -1.33055650	     -3.29555307
